<svg xmlns="http://www.w3.org/2000/svg" xmlns:xlink="http://www.w3.org/1999/xlink" width="210px" height="19px" viewBox="0 0 210 19" version="1.1">
    <g id="Page-1" stroke="none" stroke-width="1" fill="none" fill-rule="evenodd">
        <g id="Film" transform="translate(-1540.000000, -1012.000000)" fill="#D5362E" fill-rule="nonzero">
            <g id="stars" transform="translate(1540.000000, 974.000000)">
                <g id="stars_red" transform="translate(0.000000, 38.000000)">
                    <g id="star">
                        <path d="M15.843043,11.6970735 L20.1384305,8.15599796 C20.7460707,7.65312333 20.431774,6.66832717 19.6355558,6.62642095 L14.1039349,6.2911712 C13.7686851,6.27021809 13.4753416,6.06068699 13.3496229,5.74639034 L11.3171713,0.55001913 C11.0238277,-0.18333971 9.99712537,-0.18333971 9.70378183,0.55001913 L7.67133019,5.72543723 C7.54561153,6.03973388 7.25226799,6.24926498 6.91701824,6.27021809 L1.36444416,6.60546784 C0.568225989,6.64737406 0.253929343,7.63217022 0.861569525,8.13504485 L5.15695702,11.6551673 C5.40839434,11.8646984 5.53411299,12.2209012 5.45030056,12.5351979 L4.0464422,17.9201471 C3.85786422,18.674459 4.6750355,19.2820992 5.34553501,18.863037 L10.0180785,15.8667423 C10.311422,15.6781644 10.6676249,15.6781644 10.9400153,15.8667423 L15.6335119,18.863037 C16.3040114,19.2820992 17.1211827,18.674459 16.9326047,17.9201471 L15.5287463,12.556151 C15.465887,12.2418544 15.5706526,11.9066046 15.843043,11.6970735 Z" id="Path-Copy-3" />
                    </g>
                    <g id="star" transform="translate(21.000000, 0.000000)">
                        <path d="M15.843043,11.6970735 L20.1384305,8.15599796 C20.7460707,7.65312333 20.431774,6.66832717 19.6355558,6.62642095 L14.1039349,6.2911712 C13.7686851,6.27021809 13.4753416,6.06068699 13.3496229,5.74639034 L11.3171713,0.55001913 C11.0238277,-0.18333971 9.99712537,-0.18333971 9.70378183,0.55001913 L7.67133019,5.72543723 C7.54561153,6.03973388 7.25226799,6.24926498 6.91701824,6.27021809 L1.36444416,6.60546784 C0.568225989,6.64737406 0.253929343,7.63217022 0.861569525,8.13504485 L5.15695702,11.6551673 C5.40839434,11.8646984 5.53411299,12.2209012 5.45030056,12.5351979 L4.0464422,17.9201471 C3.85786422,18.674459 4.6750355,19.2820992 5.34553501,18.863037 L10.0180785,15.8667423 C10.311422,15.6781644 10.6676249,15.6781644 10.9400153,15.8667423 L15.6335119,18.863037 C16.3040114,19.2820992 17.1211827,18.674459 16.9326047,17.9201471 L15.5287463,12.556151 C15.465887,12.2418544 15.5706526,11.9066046 15.843043,11.6970735 Z" id="Path-Copy-3" />
                    </g>
                    <g id="star" transform="translate(42.000000, 0.000000)">
                        <path d="M15.843043,11.6970735 L20.1384305,8.15599796 C20.7460707,7.65312333 20.431774,6.66832717 19.6355558,6.62642095 L14.1039349,6.2911712 C13.7686851,6.27021809 13.4753416,6.06068699 13.3496229,5.74639034 L11.3171713,0.55001913 C11.0238277,-0.18333971 9.99712537,-0.18333971 9.70378183,0.55001913 L7.67133019,5.72543723 C7.54561153,6.03973388 7.25226799,6.24926498 6.91701824,6.27021809 L1.36444416,6.60546784 C0.568225989,6.64737406 0.253929343,7.63217022 0.861569525,8.13504485 L5.15695702,11.6551673 C5.40839434,11.8646984 5.53411299,12.2209012 5.45030056,12.5351979 L4.0464422,17.9201471 C3.85786422,18.674459 4.6750355,19.2820992 5.34553501,18.863037 L10.0180785,15.8667423 C10.311422,15.6781644 10.6676249,15.6781644 10.9400153,15.8667423 L15.6335119,18.863037 C16.3040114,19.2820992 17.1211827,18.674459 16.9326047,17.9201471 L15.5287463,12.556151 C15.465887,12.2418544 15.5706526,11.9066046 15.843043,11.6970735 Z" id="Path-Copy-3" />
                    </g>
                    <g id="star" transform="translate(63.000000, 0.000000)">
                        <path d="M15.843043,11.6970735 L20.1384305,8.15599796 C20.7460707,7.65312333 20.431774,6.66832717 19.6355558,6.62642095 L14.1039349,6.2911712 C13.7686851,6.27021809 13.4753416,6.06068699 13.3496229,5.74639034 L11.3171713,0.55001913 C11.0238277,-0.18333971 9.99712537,-0.18333971 9.70378183,0.55001913 L7.67133019,5.72543723 C7.54561153,6.03973388 7.25226799,6.24926498 6.91701824,6.27021809 L1.36444416,6.60546784 C0.568225989,6.64737406 0.253929343,7.63217022 0.861569525,8.13504485 L5.15695702,11.6551673 C5.40839434,11.8646984 5.53411299,12.2209012 5.45030056,12.5351979 L4.0464422,17.9201471 C3.85786422,18.674459 4.6750355,19.2820992 5.34553501,18.863037 L10.0180785,15.8667423 C10.311422,15.6781644 10.6676249,15.6781644 10.9400153,15.8667423 L15.6335119,18.863037 C16.3040114,19.2820992 17.1211827,18.674459 16.9326047,17.9201471 L15.5287463,12.556151 C15.465887,12.2418544 15.5706526,11.9066046 15.843043,11.6970735 Z" id="Path-Copy-3" />
                    </g>
                    <g id="star" transform="translate(84.000000, 0.000000)">
                        <path d="M15.843043,11.6970735 L20.1384305,8.15599796 C20.7460707,7.65312333 20.431774,6.66832717 19.6355558,6.62642095 L14.1039349,6.2911712 C13.7686851,6.27021809 13.4753416,6.06068699 13.3496229,5.74639034 L11.3171713,0.55001913 C11.0238277,-0.18333971 9.99712537,-0.18333971 9.70378183,0.55001913 L7.67133019,5.72543723 C7.54561153,6.03973388 7.25226799,6.24926498 6.91701824,6.27021809 L1.36444416,6.60546784 C0.568225989,6.64737406 0.253929343,7.63217022 0.861569525,8.13504485 L5.15695702,11.6551673 C5.40839434,11.8646984 5.53411299,12.2209012 5.45030056,12.5351979 L4.0464422,17.9201471 C3.85786422,18.674459 4.6750355,19.2820992 5.34553501,18.863037 L10.0180785,15.8667423 C10.311422,15.6781644 10.6676249,15.6781644 10.9400153,15.8667423 L15.6335119,18.863037 C16.3040114,19.2820992 17.1211827,18.674459 16.9326047,17.9201471 L15.5287463,12.556151 C15.465887,12.2418544 15.5706526,11.9066046 15.843043,11.6970735 Z" id="Path-Copy-3" />
                    </g>
                    <g id="star" transform="translate(105.000000, 0.000000)">
                        <path d="M15.843043,11.6970735 L20.1384305,8.15599796 C20.7460707,7.65312333 20.431774,6.66832717 19.6355558,6.62642095 L14.1039349,6.2911712 C13.7686851,6.27021809 13.4753416,6.06068699 13.3496229,5.74639034 L11.3171713,0.55001913 C11.0238277,-0.18333971 9.99712537,-0.18333971 9.70378183,0.55001913 L7.67133019,5.72543723 C7.54561153,6.03973388 7.25226799,6.24926498 6.91701824,6.27021809 L1.36444416,6.60546784 C0.568225989,6.64737406 0.253929343,7.63217022 0.861569525,8.13504485 L5.15695702,11.6551673 C5.40839434,11.8646984 5.53411299,12.2209012 5.45030056,12.5351979 L4.0464422,17.9201471 C3.85786422,18.674459 4.6750355,19.2820992 5.34553501,18.863037 L10.0180785,15.8667423 C10.311422,15.6781644 10.6676249,15.6781644 10.9400153,15.8667423 L15.6335119,18.863037 C16.3040114,19.2820992 17.1211827,18.674459 16.9326047,17.9201471 L15.5287463,12.556151 C15.465887,12.2418544 15.5706526,11.9066046 15.843043,11.6970735 Z" id="Path-Copy-3" />
                    </g>
                    <g id="star" transform="translate(126.000000, 0.000000)">
                        <path d="M15.843043,11.6970735 L20.1384305,8.15599796 C20.7460707,7.65312333 20.431774,6.66832717 19.6355558,6.62642095 L14.1039349,6.2911712 C13.7686851,6.27021809 13.4753416,6.06068699 13.3496229,5.74639034 L11.3171713,0.55001913 C11.0238277,-0.18333971 9.99712537,-0.18333971 9.70378183,0.55001913 L7.67133019,5.72543723 C7.54561153,6.03973388 7.25226799,6.24926498 6.91701824,6.27021809 L1.36444416,6.60546784 C0.568225989,6.64737406 0.253929343,7.63217022 0.861569525,8.13504485 L5.15695702,11.6551673 C5.40839434,11.8646984 5.53411299,12.2209012 5.45030056,12.5351979 L4.0464422,17.9201471 C3.85786422,18.674459 4.6750355,19.2820992 5.34553501,18.863037 L10.0180785,15.8667423 C10.311422,15.6781644 10.6676249,15.6781644 10.9400153,15.8667423 L15.6335119,18.863037 C16.3040114,19.2820992 17.1211827,18.674459 16.9326047,17.9201471 L15.5287463,12.556151 C15.465887,12.2418544 15.5706526,11.9066046 15.843043,11.6970735 Z" id="Path-Copy-3" />
                    </g>
                    <g id="star" transform="translate(147.000000, 0.000000)">
                        <path d="M15.843043,11.6970735 L20.1384305,8.15599796 C20.7460707,7.65312333 20.431774,6.66832717 19.6355558,6.62642095 L14.1039349,6.2911712 C13.7686851,6.27021809 13.4753416,6.06068699 13.3496229,5.74639034 L11.3171713,0.55001913 C11.0238277,-0.18333971 9.99712537,-0.18333971 9.70378183,0.55001913 L7.67133019,5.72543723 C7.54561153,6.03973388 7.25226799,6.24926498 6.91701824,6.27021809 L1.36444416,6.60546784 C0.568225989,6.64737406 0.253929343,7.63217022 0.861569525,8.13504485 L5.15695702,11.6551673 C5.40839434,11.8646984 5.53411299,12.2209012 5.45030056,12.5351979 L4.0464422,17.9201471 C3.85786422,18.674459 4.6750355,19.2820992 5.34553501,18.863037 L10.0180785,15.8667423 C10.311422,15.6781644 10.6676249,15.6781644 10.9400153,15.8667423 L15.6335119,18.863037 C16.3040114,19.2820992 17.1211827,18.674459 16.9326047,17.9201471 L15.5287463,12.556151 C15.465887,12.2418544 15.5706526,11.9066046 15.843043,11.6970735 Z" id="Path-Copy-3" />
                    </g>
                    <g id="star" transform="translate(168.000000, 0.000000)">
                        <path d="M15.843043,11.6970735 L20.1384305,8.15599796 C20.7460707,7.65312333 20.431774,6.66832717 19.6355558,6.62642095 L14.1039349,6.2911712 C13.7686851,6.27021809 13.4753416,6.06068699 13.3496229,5.74639034 L11.3171713,0.55001913 C11.0238277,-0.18333971 9.99712537,-0.18333971 9.70378183,0.55001913 L7.67133019,5.72543723 C7.54561153,6.03973388 7.25226799,6.24926498 6.91701824,6.27021809 L1.36444416,6.60546784 C0.568225989,6.64737406 0.253929343,7.63217022 0.861569525,8.13504485 L5.15695702,11.6551673 C5.40839434,11.8646984 5.53411299,12.2209012 5.45030056,12.5351979 L4.0464422,17.9201471 C3.85786422,18.674459 4.6750355,19.2820992 5.34553501,18.863037 L10.0180785,15.8667423 C10.311422,15.6781644 10.6676249,15.6781644 10.9400153,15.8667423 L15.6335119,18.863037 C16.3040114,19.2820992 17.1211827,18.674459 16.9326047,17.9201471 L15.5287463,12.556151 C15.465887,12.2418544 15.5706526,11.9066046 15.843043,11.6970735 Z" id="Path-Copy-3" />
                    </g>
                    <g id="star" transform="translate(189.000000, 0.000000)">
                        <path d="M15.843043,11.6970735 L20.1384305,8.15599796 C20.7460707,7.65312333 20.431774,6.66832717 19.6355558,6.62642095 L14.1039349,6.2911712 C13.7686851,6.27021809 13.4753416,6.06068699 13.3496229,5.74639034 L11.3171713,0.55001913 C11.0238277,-0.18333971 9.99712537,-0.18333971 9.70378183,0.55001913 L7.67133019,5.72543723 C7.54561153,6.03973388 7.25226799,6.24926498 6.91701824,6.27021809 L1.36444416,6.60546784 C0.568225989,6.64737406 0.253929343,7.63217022 0.861569525,8.13504485 L5.15695702,11.6551673 C5.40839434,11.8646984 5.53411299,12.2209012 5.45030056,12.5351979 L4.0464422,17.9201471 C3.85786422,18.674459 4.6750355,19.2820992 5.34553501,18.863037 L10.0180785,15.8667423 C10.311422,15.6781644 10.6676249,15.6781644 10.9400153,15.8667423 L15.6335119,18.863037 C16.3040114,19.2820992 17.1211827,18.674459 16.9326047,17.9201471 L15.5287463,12.556151 C15.465887,12.2418544 15.5706526,11.9066046 15.843043,11.6970735 Z" id="Path-Copy-3" />
                    </g>
                </g>
            </g>
        </g>
    </g>
</svg>